<svg width="64" height="64" viewBox="0 0 75 75" fill="none" xmlns="http://www.w3.org/2000/svg">
<path d="M51.6877 19.3737L51.6877 54.5829C51.6877 57.8347 50.3838 60.9534 48.0626 63.2537C45.7413 65.554 42.5927 66.8475 39.3086 66.8501L20.7011 66.8501C19.0746 66.8501 17.4641 66.5327 15.9616 65.9161C14.459 65.2995 13.0939 64.3958 11.9443 63.2565C10.7947 62.1173 9.88307 60.7649 9.26154 59.2766C8.64 57.7883 8.32075 56.1934 8.32203 54.5829L8.32203 19.3737M21.5881 30.0002L21.5881 54.3705M38.4119 30.0002L38.4119 54.3705M20.1942 11.1795L20.1942 9.06575C20.1994 7.41883 20.8624 5.8408 22.0385 4.67624C23.2146 3.51168 24.8082 2.85519 26.4715 2.8501L33.5383 2.8501C35.2015 2.85519 36.7951 3.51168 37.9712 4.67624C39.1473 5.8408 39.8104 7.41883 39.8155 9.06575L39.8155 11.1795M5.43682 11.1795L54.5632 11.1795C55.909 11.1795 57 12.2598 57 13.5924L57 16.9608C57 18.2934 55.909 19.3737 54.5632 19.3737L5.43682 19.3737C4.091 19.3737 3 18.2934 3 16.9608L3 13.5924C3 12.2598 4.091 11.1795 5.43682 11.1795Z" stroke="#1D1D1B" stroke-width="5" stroke-linecap="round" stroke-linejoin="round"/>
</svg>
