<svg width="75" height="75" viewBox="0 0 75 75" fill="none" xmlns="http://www.w3.org/2000/svg">
<path d="M54.0764 7.96181L15.8449 7.96181C12.9687 7.96181 10.2102 9.10509 8.17641 11.1401C6.14259 13.1751 5 15.9353 5 18.8132L5 61.1487C5 64.0266 6.14259 66.7867 8.17641 68.8217C10.2102 70.8567 12.9687 72 15.8449 72L58.1551 72C59.5793 72 60.9895 71.7193 62.3053 71.174C63.621 70.6287 64.8166 69.8293 65.8236 68.8217C66.8307 67.814 67.6295 66.6178 68.1745 65.3012C68.7195 63.9847 69 62.5737 69 61.1487L69 25.9149M65.3093 4.45841C63.9636 3.36902 62.2415 2.85706 60.5196 3.03449C58.7977 3.21193 57.2161 4.06434 56.1205 5.4053L51.5308 11.0866L28.1471 40.1278L23.8035 54.3312C23.7531 54.53 23.7598 54.7389 23.8229 54.9341C23.886 55.1292 24.0029 55.3026 24.1601 55.4342C24.3173 55.5658 24.5085 55.6502 24.7116 55.6779C24.9147 55.7055 25.1215 55.6752 25.3082 55.5905L38.2444 48.3562L66.2462 13.6622C67.3414 12.3172 67.8579 10.5921 67.6823 8.86621C67.5066 7.14028 66.653 5.5548 65.3093 4.45841Z" stroke="#1D1D1B" stroke-width="5" stroke-linecap="round" stroke-linejoin="round"/>
</svg>
