<svg width="75" height="72" viewBox="0 0 75 72" fill="none" xmlns="http://www.w3.org/2000/svg">
<path d="M19.8976 29.47H29.3976M19.8976 39.45H54.5876M59.6976 12.72C56.7778 9.79799 53.3108 7.48002 49.4948 5.8985C45.6787 4.31698 41.5884 3.50287 37.4576 3.50287C33.3268 3.50287 29.2365 4.31698 25.4205 5.8985C21.6044 7.48002 18.1374 9.79799 15.2176 12.72C12.2956 15.6398 9.97756 19.1069 8.39603 22.9229C6.81451 26.739 6.00049 30.8292 6.00049 34.96C6.00049 39.0908 6.81451 43.1812 8.39603 46.9973C9.97756 50.8133 12.2956 54.2802 15.2176 57.2C20.4824 62.4508 27.4374 65.6663 34.848 66.2759C42.2586 66.8856 49.6455 64.8499 55.6976 60.5301L68.3676 67.43C68.5744 67.5435 68.8125 67.5868 69.046 67.5535C69.2796 67.5202 69.496 67.4121 69.6628 67.2453C69.8297 67.0785 69.9379 66.862 69.9712 66.6285C70.0045 66.3949 69.9611 66.1568 69.8476 65.95L62.9476 53.2801C67.2991 47.2304 69.361 39.832 68.7658 32.4036C68.1706 24.9753 64.9569 17.9997 59.6976 12.72Z" stroke="#1D1D1B" stroke-width="5" stroke-linecap="round" stroke-linejoin="round"/>
</svg>
